<svg viewBox="0 0 975.036 975.036" xmlns="http://www.w3.org/2000/svg" xmlns:xlink="http://www.w3.org/1999/xlink"><style>:root&gt;svg{display:none}:root&gt;svg:target{display:block}</style><svg viewBox="0 0 512 512" id="calendar" xmlns="http://www.w3.org/2000/svg"><path d="M446 40h-46V16c0-8.836-7.163-16-16-16s-16 7.164-16 16v24H144V16c0-8.836-7.163-16-16-16s-16 7.164-16 16v24H66C29.607 40 0 69.607 0 106v340c0 36.393 29.607 66 66 66h380c36.393 0 66-29.607 66-66V106c0-36.393-29.607-66-66-66zm34 406c0 18.778-15.222 34-34 34H66c-18.778 0-34-15.222-34-34V181a5 5 0 015-5h438a5 5 0 015 5z"/></svg><svg viewBox="0 0 384 384" id="call" xmlns="http://www.w3.org/2000/svg"><path d="M353.188 252.052c-23.51 0-46.594-3.677-68.469-10.906-10.719-3.656-23.896-.302-30.438 6.417l-43.177 32.594c-50.073-26.729-80.917-57.563-107.281-107.26l31.635-42.052c8.219-8.208 11.167-20.198 7.635-31.448-7.26-21.99-10.948-45.063-10.948-68.583C132.146 13.823 118.323 0 101.333 0h-70.52C13.823 0 0 13.823 0 30.813 0 225.563 158.438 384 353.188 384c16.99 0 30.813-13.823 30.813-30.813v-70.323c-.001-16.989-13.824-30.812-30.813-30.812z"/></svg><svg viewBox="0 0 515.556 515.556" id="checked" xmlns="http://www.w3.org/2000/svg"><path d="M0 274.226l176.549 176.886L515.556 112.44l-48.67-47.997-290.337 290L47.996 225.891z"/></svg><svg viewBox="0 0 559.98 559.98" id="clock-circular-outline" xmlns="http://www.w3.org/2000/svg"><path d="M279.99 0C125.601 0 0 125.601 0 279.99c0 154.39 125.601 279.99 279.99 279.99 154.39 0 279.99-125.601 279.99-279.99S434.38 0 279.99 0zm0 498.78c-120.644 0-218.79-98.146-218.79-218.79 0-120.638 98.146-218.79 218.79-218.79s218.79 98.152 218.79 218.79c0 120.644-98.146 218.79-218.79 218.79z"/><path d="M304.226 280.326v-117.35c0-13.103-10.618-23.721-23.716-23.721-13.102 0-23.721 10.618-23.721 23.721v124.928c0 .373.092.723.11 1.096-.312 6.45 1.91 12.999 6.836 17.926l88.343 88.336c9.266 9.266 24.284 9.266 33.543 0 9.26-9.266 9.266-24.284 0-33.544l-81.395-81.392z"/></svg><svg viewBox="0 0 512 512" id="copyright" xmlns="http://www.w3.org/2000/svg"><path d="M256 512c-68.379 0-132.668-26.629-181.02-74.98C26.63 388.668 0 324.379 0 256S26.629 123.332 74.98 74.98C123.332 26.63 187.621 0 256 0s132.668 26.629 181.02 74.98C485.37 123.332 512 187.621 512 256s-26.629 132.668-74.98 181.02C388.668 485.37 324.379 512 256 512zm0-472C136.898 40 40 136.898 40 256s96.898 216 216 216 216-96.898 216-216S375.102 40 256 40zm105.36 321.36l-28.286-28.286c-42.5 42.5-111.648 42.5-154.148 0s-42.5-111.648 0-154.148 111.648-42.5 154.148 0l28.285-28.285c-58.097-58.094-152.625-58.094-210.718 0-58.094 58.097-58.094 152.625 0 210.718 29.047 29.047 67.203 43.57 105.359 43.57 38.152 0 76.313-14.523 105.36-43.57zm0 0"/></svg><svg viewBox="0 0 512 512" id="document" xmlns="http://www.w3.org/2000/svg"><path d="M433.798 106.268l-96.423-91.222C327.119 5.343 313.695 0 299.577 0H116C85.673 0 61 24.673 61 55v402c0 30.327 24.673 55 55 55h280c30.327 0 55-24.673 55-55V146.222c0-15.049-6.27-29.612-17.202-39.954zM404.661 120H330c-2.757 0-5-2.243-5-5V44.636zM396 482H116c-13.785 0-25-11.215-25-25V55c0-13.785 11.215-25 25-25h179v85c0 19.299 15.701 35 35 35h91v307c0 13.785-11.215 25-25 25z"/><path d="M363 200H143c-8.284 0-15 6.716-15 15s6.716 15 15 15h220c8.284 0 15-6.716 15-15s-6.716-15-15-15zm0 80H143c-8.284 0-15 6.716-15 15s6.716 15 15 15h220c8.284 0 15-6.716 15-15s-6.716-15-15-15zm-147.28 80H143c-8.284 0-15 6.716-15 15s6.716 15 15 15h72.72c8.284 0 15-6.716 15-15s-6.716-15-15-15z"/></svg><svg viewBox="0 0 511.995 511.995" id="dollar" xmlns="http://www.w3.org/2000/svg"><path d="M278.622 224.006V110.243a151.685 151.685 0 0166.901 29.087 23.943 23.943 0 0013.251 4.201c15.222 0 27.633-12.249 27.794-27.471a24.674 24.674 0 00-7.11-17.452 170.544 170.544 0 00-101.159-40.722V19.749c0-10.892-8.823-19.715-19.715-19.715-.226-.032-.453-.032-.679-.032-11.053-.162-20.167 8.662-20.329 19.747v36.844c-72.718 5.171-122.166 50.095-122.166 109.885 0 73.364 62.376 93.726 122.166 109.885V405.64c-31.544-4.234-61.277-17.323-85.646-37.813-4.589-3.652-10.278-5.688-16.16-5.817-14.899 1.034-26.372 13.509-26.179 28.441a24.674 24.674 0 007.11 17.452 190.344 190.344 0 00121.197 48.802v35.551c0 .226.032.453.032.679.517 11.053 9.922 19.585 20.975 19.036 10.892 0 19.715-8.823 19.715-19.715v-36.197c88.231-5.817 123.782-59.467 123.782-116.349.002-76.274-63.989-99.544-123.78-115.704zM237.9 213.664c-35.228-10.342-62.699-21.007-62.699-51.064s24.886-51.711 62.699-54.619v105.683zm40.722 192.622V288.645c36.521 10.342 64.961 24.239 64.638 58.174 0 24.563-16.806 53.65-64.638 59.467z"/></svg><svg viewBox="0 0 24 24" id="facebook" xmlns="http://www.w3.org/2000/svg"><path d="M15.997 3.985h2.191V.169C17.81.117 16.51 0 14.996 0c-3.159 0-5.323 1.987-5.323 5.639V9H6.187v4.266h3.486V24h4.274V13.267h3.345l.531-4.266h-3.877V6.062c.001-1.233.333-2.077 2.051-2.077z"/></svg><svg viewBox="0 0 512 512" id="facebook_(1)" xmlns="http://www.w3.org/2000/svg"><path d="M483.738 0h-455.5C12.641.008-.004 12.66 0 28.262v455.5C.008 499.359 12.66 512.004 28.262 512h455.476c15.606.004 28.258-12.645 28.262-28.25V28.238C511.992 12.641 499.34-.004 483.738 0zm0 0" fill="#4267b2"/><path d="M353.5 512V314h66.75l10-77.5H353.5v-49.36c0-22.386 6.215-37.64 38.316-37.64H432.5V80.371c-7.078-.941-31.363-3.047-59.621-3.047-59 0-99.379 36-99.379 102.14V236.5H207V314h66.5v198zm0 0" fill="#fff"/></svg><svg viewBox="0 0 512 512" id="film" xmlns="http://www.w3.org/2000/svg"><path d="M28.457 0v512h455.087V0H28.457zm62.876 482H58.457v-31.936h32.877V482zm0-61.936H58.457v-30.003h32.877v30.003zm0-60.003H58.457v-30.004h32.877v30.004zm0-60.004H58.457v-30.004h32.877v30.004zm0-60.004H58.457v-30.004h32.877v30.004zm0-60.005H58.457v-30.003h32.877v30.003zm0-60.003H58.457V90.042h32.877v30.003zm0-60.003H58.457V30h32.877v30.042zM390.666 482H121.333V270.053h269.332V482zm0-241.947H121.333V30h269.332v210.053zM453.542 482h-32.877v-31.936h32.877V482zm0-61.936h-32.877v-30.003h32.877v30.003zm0-60.003h-32.877v-30.004h32.877v30.004zm0-60.004h-32.877v-30.004h32.877v30.004zm0-60.004h-32.877v-30.004h32.877v30.004zm0-60.004h-32.877v-30.003h32.877v30.003zm0-60.003h-32.877V90.042h32.877v30.004zm.001-60.004h-32.877V30h32.877v30.042z"/></svg><svg viewBox="0 0 455.73 455.73" id="google-plus" xmlns="http://www.w3.org/2000/svg"><path d="M0 0v455.73h455.73V0H0zm265.67 247.037c-7.793 51.194-45.961 80.543-95.376 80.543-55.531 0-100.552-45.021-100.552-100.552 0-55.517 45.021-100.538 100.552-100.538 26.862 0 50.399 9.586 67.531 26.226l-28.857 28.857c-9.773-9.846-23.147-15.094-38.674-15.094-32.688 0-59.189 27.874-59.189 60.548 0 32.703 26.501 59.768 59.189 59.768 27.397 0 48.144-13.243 54.129-39.758h-54.129v-40.38h95.131c1.142 6.506 1.72 13.315 1.72 20.37-.001 6.998-.507 13.663-1.475 20.01zm120.749-12.52h-35.233v35.218H326.16v-35.218h-35.233v-25.041h35.233v-35.233h25.026v35.233h35.233v25.041z" fill="#dd4b39"/></svg><svg viewBox="0 0 96.828 96.827" id="google-plus-logo" xmlns="http://www.w3.org/2000/svg"><path d="M62.617 0H39.525c-10.29 0-17.413 2.256-23.824 7.552-5.042 4.35-8.051 10.672-8.051 16.912 0 9.614 7.33 19.831 20.913 19.831 1.306 0 2.752-.134 4.028-.253l-.188.457c-.546 1.308-1.063 2.542-1.063 4.468 0 3.75 1.809 6.063 3.558 8.298l.22.283-.391.027c-5.609.384-16.049 1.1-23.675 5.787-9.007 5.355-9.707 13.145-9.707 15.404 0 8.988 8.376 18.06 27.09 18.06 21.76 0 33.146-12.005 33.146-23.863.002-8.771-5.141-13.101-10.6-17.698l-4.605-3.582c-1.423-1.179-3.195-2.646-3.195-5.364 0-2.672 1.772-4.436 3.336-5.992l.163-.165c4.973-3.917 10.609-8.358 10.609-17.964 0-9.658-6.035-14.649-8.937-17.048h7.663a.488.488 0 00.266-.077l6.601-4.15A.5.5 0 0062.617 0zM34.614 91.535c-13.264 0-22.176-6.195-22.176-15.416 0-6.021 3.645-10.396 10.824-12.997 5.749-1.935 13.17-2.031 13.244-2.031 1.257 0 1.889 0 2.893.126 9.281 6.605 13.743 10.073 13.743 16.678-.001 8.414-7.101 13.64-18.528 13.64zm-.125-50.779c-11.132 0-15.752-14.633-15.752-22.468 0-3.984.906-7.042 2.77-9.351 2.023-2.531 5.487-4.166 8.825-4.166 10.221 0 15.873 13.738 15.873 23.233 0 1.498 0 6.055-3.148 9.22-2.117 2.113-5.56 3.532-8.568 3.532zm60.493 4.467H82.814V33.098a.5.5 0 00-.5-.5H77.08a.5.5 0 00-.5.5v12.125H64.473a.5.5 0 00-.5.5v5.304a.5.5 0 00.5.5H76.58V63.73a.5.5 0 00.5.5h5.234c.275 0 .5-.225.5-.5V51.525h12.168a.5.5 0 00.5-.5v-5.302c0-.277-.223-.5-.5-.5z"/></svg><svg viewBox="0 0 24 24" id="iconmonstr-arrow-3" xmlns="http://www.w3.org/2000/svg"><path d="M12 0C5.373 0 0 5.373 0 12s5.373 12 12 12 12-5.373 12-12S18.627 0 12 0zm1 18v-4H6v-4h7V6l6 6-6 6z"/></svg><svg viewBox="0 0 24 24" id="iconmonstr-arrow-60" xmlns="http://www.w3.org/2000/svg"><path d="M15 16v5l9-10.062L15 1v5C.931 7.711-4.348 21.107 4.394 22.981.59 20.045 7.645 15.54 15 16z"/></svg><svg viewBox="0 0 24 24" id="iconmonstr-favorite-3" xmlns="http://www.w3.org/2000/svg"><path d="M12 4.248C8.852-1.154 0 .423 0 7.192 0 11.853 5.571 16.619 12 23c6.43-6.381 12-11.147 12-15.808C24 .4 15.125-1.114 12 4.248z"/></svg><svg viewBox="0 0 24 24" id="iconmonstr-user-5" xmlns="http://www.w3.org/2000/svg"><path d="M19 7.001A7 7 0 114.999 7 7 7 0 0119 7zm-1.598 7.18A8.937 8.937 0 0112 16.001a8.953 8.953 0 01-5.407-1.822C2.521 15.972 0 21.555 0 24h24c0-2.423-2.6-8.006-6.598-9.819z"/></svg><svg viewBox="0 0 511 511.9" id="instagram" xmlns="http://www.w3.org/2000/svg"><path d="M510.95 150.5c-1.2-27.2-5.598-45.898-11.9-62.102-6.5-17.199-16.5-32.597-29.6-45.398-12.802-13-28.302-23.102-45.302-29.5-16.296-6.3-34.898-10.7-62.097-11.898C334.648.3 325.949 0 256.449 0s-78.199.3-105.5 1.5c-27.199 1.2-45.898 5.602-62.097 11.898-17.204 6.5-32.602 16.5-45.403 29.602-13 12.8-23.097 28.3-29.5 45.3-6.3 16.302-10.699 34.9-11.898 62.098C.75 177.801.449 186.5.449 256s.301 78.2 1.5 105.5c1.2 27.2 5.602 45.898 11.903 62.102 6.5 17.199 16.597 32.597 29.597 45.398 12.801 13 28.301 23.102 45.301 29.5 16.3 6.3 34.898 10.7 62.102 11.898 27.296 1.204 36 1.5 105.5 1.5s78.199-.296 105.5-1.5c27.199-1.199 45.898-5.597 62.097-11.898a130.934 130.934 0 0074.903-74.898c6.296-16.301 10.699-34.903 11.898-62.102 1.2-27.3 1.5-36 1.5-105.5s-.102-78.2-1.3-105.5zm-46.098 209c-1.102 25-5.301 38.5-8.801 47.5-8.602 22.3-26.301 40-48.602 48.602-9 3.5-22.597 7.699-47.5 8.796-27 1.204-35.097 1.5-103.398 1.5s-76.5-.296-103.403-1.5c-25-1.097-38.5-5.296-47.5-8.796C94.551 451.5 84.45 445 76.25 436.5c-8.5-8.3-15-18.3-19.102-29.398-3.5-9-7.699-22.602-8.796-47.5-1.204-27-1.5-35.102-1.5-103.403s.296-76.5 1.5-103.398c1.097-25 5.296-38.5 8.796-47.5C61.25 94.199 67.75 84.1 76.352 75.898c8.296-8.5 18.296-15 29.398-19.097 9-3.5 22.602-7.7 47.5-8.801 27-1.2 35.102-1.5 103.398-1.5 68.403 0 76.5.3 103.403 1.5 25 1.102 38.5 5.3 47.5 8.8 11.097 4.098 21.199 10.598 29.398 19.098 8.5 8.301 15 18.301 19.102 29.403 3.5 9 7.699 22.597 8.8 47.5 1.2 27 1.5 35.097 1.5 103.398s-.3 76.301-1.5 103.301zm0 0"/><path d="M256.45 124.5c-72.598 0-131.5 58.898-131.5 131.5s58.902 131.5 131.5 131.5c72.6 0 131.5-58.898 131.5-131.5s-58.9-131.5-131.5-131.5zm0 216.8c-47.098 0-85.302-38.198-85.302-85.3s38.204-85.3 85.301-85.3c47.102 0 85.301 38.198 85.301 85.3s-38.2 85.3-85.3 85.3zm167.402-222c0 16.954-13.747 30.7-30.704 30.7-16.953 0-30.699-13.746-30.699-30.7 0-16.956 13.746-30.698 30.7-30.698 16.956 0 30.703 13.742 30.703 30.699zm0 0"/></svg><svg viewBox="0 0 95.333 95.332" id="left-quote" xmlns="http://www.w3.org/2000/svg"><path d="M30.512 43.939c-2.348-.676-4.696-1.019-6.98-1.019-3.527 0-6.47.806-8.752 1.793 2.2-8.054 7.485-21.951 18.013-23.516a2.501 2.501 0 002.04-1.799l2.301-8.23a2.5 2.5 0 00-2.068-3.15 17.477 17.477 0 00-2.354-.16c-12.637 0-25.152 13.19-30.433 32.076-3.1 11.08-4.009 27.738 3.627 38.223 4.273 5.867 10.507 9 18.529 9.313l.098.002c9.898 0 18.675-6.666 21.345-16.209a22.032 22.032 0 00-2.032-16.851c-2.875-5.105-7.61-8.826-13.334-10.473zm61.959 10.474c-2.875-5.106-7.61-8.827-13.334-10.474-2.348-.676-4.696-1.019-6.979-1.019a21.94 21.94 0 00-8.753 1.793c2.2-8.054 7.485-21.951 18.014-23.516a2.503 2.503 0 002.04-1.799l2.301-8.23a2.5 2.5 0 00-2.068-3.15 17.455 17.455 0 00-2.354-.16c-12.637 0-25.152 13.19-30.434 32.076-3.099 11.08-4.008 27.738 3.629 38.225 4.272 5.866 10.507 9 18.528 9.312l.099.002c9.897 0 18.675-6.666 21.345-16.209a22.045 22.045 0 00-2.034-16.851z"/></svg><svg viewBox="0 0 455.731 455.731" id="linkedin" xmlns="http://www.w3.org/2000/svg"><path fill="#0084b1" d="M0 0h455.731v455.731H0z"/><path d="M107.255 69.215c20.873.017 38.088 17.257 38.043 38.234-.05 21.965-18.278 38.52-38.3 38.043-20.308.411-38.155-16.551-38.151-38.188 0-20.985 17.282-38.105 38.408-38.089zm22.176 317.256H84.71c-5.804 0-10.509-4.705-10.509-10.509V185.18c0-5.804 4.705-10.509 10.509-10.509h44.721c5.804 0 10.509 4.705 10.509 10.509v190.783c-.001 5.803-4.705 10.508-10.509 10.508zm257.453-144.789c0-39.996-32.423-72.42-72.42-72.42h-11.47c-21.882 0-41.214 10.918-52.842 27.606a64.249 64.249 0 00-3.52 5.658c-.373-.056-.594-.085-.599-.075v-23.418a4.363 4.363 0 00-4.363-4.363h-55.795a4.363 4.363 0 00-4.363 4.363V382.11a4.363 4.363 0 004.361 4.363l57.011.014a4.363 4.363 0 004.364-4.363V264.801c0-20.28 16.175-37.119 36.454-37.348 10.352-.117 19.737 4.031 26.501 10.799 6.675 6.671 10.802 15.895 10.802 26.079v117.808a4.363 4.363 0 004.361 4.363l57.152.014a4.363 4.363 0 004.364-4.363V241.682z" fill="#fff"/></svg><svg viewBox="0 0 512.002 512.002" id="next" xmlns="http://www.w3.org/2000/svg"><path d="M388.425 241.951L151.609 5.79c-7.759-7.733-20.321-7.72-28.067.04-7.74 7.759-7.72 20.328.04 28.067l222.72 222.105-222.728 222.104c-7.759 7.74-7.779 20.301-.04 28.061a19.8 19.8 0 0014.057 5.835 19.79 19.79 0 0014.017-5.795l236.817-236.155c3.737-3.718 5.834-8.778 5.834-14.05s-2.103-10.326-5.834-14.051z"/></svg><svg viewBox="0 0 548.176 548.176" id="picture" xmlns="http://www.w3.org/2000/svg"><path d="M534.75 68.238c-8.945-8.945-19.694-13.417-32.261-13.417H45.681c-12.562 0-23.313 4.471-32.264 13.417C4.471 77.185 0 87.936 0 100.499v347.173c0 12.566 4.471 23.318 13.417 32.264 8.951 8.946 19.702 13.419 32.264 13.419h456.815c12.56 0 23.312-4.473 32.258-13.419 8.945-8.945 13.422-19.697 13.422-32.264V100.499c0-12.563-4.477-23.314-13.426-32.261zm-23.127 379.434c0 2.478-.899 4.613-2.707 6.427-1.81 1.8-3.952 2.703-6.427 2.703H45.681c-2.473 0-4.615-.903-6.423-2.703-1.807-1.813-2.712-3.949-2.712-6.427V100.495c0-2.474.902-4.611 2.712-6.423 1.809-1.803 3.951-2.708 6.423-2.708h456.815c2.471 0 4.613.905 6.42 2.708 1.801 1.812 2.707 3.949 2.707 6.423v347.177z"/><path d="M127.91 237.541c15.229 0 28.171-5.327 38.831-15.987 10.657-10.66 15.987-23.601 15.987-38.826 0-15.23-5.333-28.171-15.987-38.832-10.66-10.656-23.603-15.986-38.831-15.986-15.227 0-28.168 5.33-38.828 15.986-10.656 10.66-15.986 23.601-15.986 38.832 0 15.225 5.327 28.169 15.986 38.826 10.66 10.657 23.601 15.987 38.828 15.987zm82.224 82.224l-45.682-45.677-91.36 91.359v54.82h401.993V292.36l-118.77-118.773z"/></svg><svg viewBox="0 0 511.977 511.977" id="pinterest" xmlns="http://www.w3.org/2000/svg"><path d="M262.948 0C122.628 0 48.004 89.92 48.004 187.968c0 45.472 25.408 102.176 66.08 120.16 6.176 2.784 9.536 1.6 10.912-4.128 1.216-4.352 6.56-25.312 9.152-35.2.8-3.168.384-5.92-2.176-8.896-13.504-15.616-24.224-44.064-24.224-70.752 0-68.384 54.368-134.784 146.88-134.784 80 0 135.968 51.968 135.968 126.304 0 84-44.448 142.112-102.208 142.112-31.968 0-55.776-25.088-48.224-56.128 9.12-36.96 27.008-76.704 27.008-103.36 0-23.904-13.504-43.68-41.088-43.68-32.544 0-58.944 32.224-58.944 75.488 0 27.488 9.728 46.048 9.728 46.048S144.676 371.2 138.692 395.488c-10.112 41.12 1.376 107.712 2.368 113.44.608 3.168 4.16 4.16 6.144 1.568 3.168-4.16 42.08-59.68 52.992-99.808 3.968-14.624 20.256-73.92 20.256-73.92 10.72 19.36 41.664 35.584 74.624 35.584 98.048 0 168.896-86.176 168.896-193.12C463.62 76.704 375.876 0 262.948 0z"/></svg><svg viewBox="0 0 975.036 975.036" id="right-quote-sign" xmlns="http://www.w3.org/2000/svg"><path d="M925.036 57.197h-304c-27.6 0-50 22.4-50 50v304c0 27.601 22.4 50 50 50h145.5c-1.9 79.601-20.4 143.3-55.4 191.2-27.6 37.8-69.399 69.1-125.3 93.8-25.7 11.3-36.8 41.7-24.8 67.101l36 76c11.6 24.399 40.3 35.1 65.1 24.399 66.2-28.6 122.101-64.8 167.7-108.8 55.601-53.7 93.7-114.3 114.3-181.9 20.601-67.6 30.9-159.8 30.9-276.8v-239c0-27.599-22.401-50-50-50zm-819 856.3c65.4-28.5 121-64.699 166.9-108.6 56.1-53.7 94.4-114.1 115-181.2 20.6-67.1 30.899-159.6 30.899-277.5v-239c0-27.6-22.399-50-50-50h-304c-27.6 0-50 22.4-50 50v304c0 27.601 22.4 50 50 50h145.5c-1.9 79.601-20.4 143.3-55.4 191.2-27.6 37.8-69.4 69.1-125.3 93.8-25.7 11.3-36.8 41.7-24.8 67.101l35.9 75.8c11.601 24.399 40.501 35.2 65.301 24.399z"/></svg><svg viewBox="0 0 448 448" id="rss" xmlns="http://www.w3.org/2000/svg"><circle cx="64" cy="384" r="64"/><path d="M0 149.344v85.344c117.632 0 213.344 95.68 213.344 213.312h85.312c0-164.672-133.984-298.656-298.656-298.656z"/><path d="M0 0v85.344C200 85.344 362.688 248 362.688 448H448C448 200.96 247.04 0 0 0z"/></svg><svg viewBox="0 0 31.685 31.685" id="smartphone" xmlns="http://www.w3.org/2000/svg"><path d="M22.507 0H9.175A2.306 2.306 0 006.87 2.309v27.07a2.306 2.306 0 002.305 2.306h13.332a2.308 2.308 0 002.307-2.306V2.309A2.31 2.31 0 0022.507 0zm.578 25.672H8.599V3.895h14.486v21.777zM18.932 2.343h-6.181v-.674h6.182l-.001.674zm2.645-.308a.591.591 0 01-1.182 0 .591.591 0 011.182 0zm-2.922 27.19h-5.629v-1.732h5.629v1.732z"/></svg><svg viewBox="0 0 511.096 511.096" id="speech-bubble" xmlns="http://www.w3.org/2000/svg"><path d="M74.414 480.548H38.2l25.607-25.607c13.807-13.807 22.429-31.765 24.747-51.246C29.427 364.893 0 308.681 0 249.751 0 141.032 99.923 30.548 256.414 30.548c165.785 0 254.682 101.666 254.682 209.678 0 108.724-89.836 210.322-254.682 210.322-28.877 0-59.01-3.855-85.913-10.928-25.467 26.121-59.973 40.928-96.087 40.928z"/></svg><svg viewBox="0 0 456.814 456.814" id="thumbs-up-hand-symbol" xmlns="http://www.w3.org/2000/svg"><path d="M441.11 252.677c10.468-11.99 15.704-26.169 15.704-42.54 0-14.846-5.432-27.692-16.259-38.547-10.849-10.854-23.695-16.278-38.541-16.278h-79.082c.76-2.664 1.522-4.948 2.282-6.851.753-1.903 1.811-3.999 3.138-6.283 1.328-2.285 2.283-3.999 2.852-5.139 3.425-6.468 6.047-11.801 7.857-15.985 1.807-4.192 3.606-9.9 5.42-17.133 1.811-7.229 2.711-14.465 2.711-21.698 0-4.566-.055-8.281-.145-11.134-.089-2.855-.574-7.139-1.423-12.85-.862-5.708-2.006-10.467-3.43-14.272-1.43-3.806-3.716-8.092-6.851-12.847-3.142-4.764-6.947-8.613-11.424-11.565-4.476-2.95-10.184-5.424-17.131-7.421-6.954-1.999-14.801-2.998-23.562-2.998-4.948 0-9.227 1.809-12.847 5.426-3.806 3.806-7.047 8.564-9.709 14.272-2.666 5.711-4.523 10.66-5.571 14.849-1.047 4.187-2.238 9.994-3.565 17.415-1.719 7.998-2.998 13.752-3.86 17.273-.855 3.521-2.525 8.136-4.997 13.845-2.477 5.713-5.424 10.278-8.851 13.706-6.28 6.28-15.891 17.701-28.837 34.259-9.329 12.18-18.94 23.695-28.837 34.545-9.899 10.852-17.131 16.466-21.698 16.847-4.755.38-8.848 2.331-12.275 5.854-3.427 3.521-5.14 7.662-5.14 12.419v183.01c0 4.949 1.807 9.182 5.424 12.703 3.615 3.525 7.898 5.38 12.847 5.571 6.661.191 21.698 4.374 45.111 12.566 14.654 4.941 26.12 8.706 34.4 11.272 8.278 2.566 19.849 5.328 34.684 8.282 14.849 2.949 28.551 4.428 41.11 4.428h36.831c25.321-.38 44.061-7.806 56.247-22.268 11.036-13.135 15.697-30.361 13.99-51.679 7.422-7.042 12.565-15.984 15.416-26.836 3.231-11.604 3.231-22.74 0-33.397 8.754-11.611 12.847-24.649 12.272-39.115.024-6.097-1.4-13.328-4.261-21.706zM100.5 191.864H18.276c-4.952 0-9.235 1.809-12.851 5.426C1.809 200.905 0 205.188 0 210.137v182.732c0 4.942 1.809 9.227 5.426 12.847 3.619 3.611 7.902 5.421 12.851 5.421H100.5c4.948 0 9.229-1.81 12.847-5.421 3.616-3.62 5.424-7.904 5.424-12.847V210.137c0-4.949-1.809-9.231-5.424-12.847-3.617-3.618-7.898-5.426-12.847-5.426zM67.665 369.308c-3.616 3.521-7.898 5.281-12.847 5.281-5.14 0-9.471-1.76-12.99-5.281-3.521-3.521-5.281-7.85-5.281-12.99 0-4.948 1.759-9.232 5.281-12.847 3.52-3.617 7.85-5.428 12.99-5.428 4.949 0 9.231 1.811 12.847 5.428 3.617 3.614 5.426 7.898 5.426 12.847 0 5.14-1.805 9.468-5.426 12.99z"/></svg><svg viewBox="0 0 24 24" id="tumblr" xmlns="http://www.w3.org/2000/svg"><path d="M19 22.594l-1.175-3.425c-.458.214-1.327.399-1.968.419h-.091c-1.863 0-2.228-1.37-2.244-2.371v-7.47h4.901V6.114H13.54V0H9.965a.191.191 0 00-.176.179C9.587 2.052 8.691 5.335 5 6.648v3.099h2.456v7.842c0 2.655 1.97 6.411 7.148 6.411l-.011-.002h.181c1.786-.03 3.783-.768 4.226-1.404z"/></svg><svg viewBox="0 0 512 512" id="twitter" xmlns="http://www.w3.org/2000/svg"><path d="M512 97.248c-19.04 8.352-39.328 13.888-60.48 16.576 21.76-12.992 38.368-33.408 46.176-58.016-20.288 12.096-42.688 20.64-66.56 25.408C411.872 60.704 384.416 48 354.464 48c-58.112 0-104.896 47.168-104.896 104.992 0 8.32.704 16.32 2.432 23.936-87.264-4.256-164.48-46.08-216.352-109.792-9.056 15.712-14.368 33.696-14.368 53.056 0 36.352 18.72 68.576 46.624 87.232-16.864-.32-33.408-5.216-47.424-12.928v1.152c0 51.008 36.384 93.376 84.096 103.136-8.544 2.336-17.856 3.456-27.52 3.456-6.72 0-13.504-.384-19.872-1.792 13.6 41.568 52.192 72.128 98.08 73.12-35.712 27.936-81.056 44.768-130.144 44.768-8.608 0-16.864-.384-25.12-1.44C46.496 446.88 101.6 464 161.024 464c193.152 0 298.752-160 298.752-298.688 0-4.64-.16-9.12-.384-13.568 20.832-14.784 38.336-33.248 52.608-54.496z"/></svg><svg viewBox="0 0 455.731 455.731" id="twitter_(1)" xmlns="http://www.w3.org/2000/svg"><path fill="#50abf1" d="M0 0h455.731v455.731H0z"/><path d="M60.377 337.822c30.33 19.236 66.308 30.368 104.875 30.368 108.349 0 196.18-87.841 196.18-196.18 0-2.705-.057-5.39-.161-8.067 3.919-3.084 28.157-22.511 34.098-35 0 0-19.683 8.18-38.947 10.107-.038 0-.085.009-.123.009 0 0 .038-.019.104-.066 1.775-1.186 26.591-18.079 29.951-38.207 0 0-13.922 7.431-33.415 13.932a223.578 223.578 0 01-10.088 3.103c-12.565-13.41-30.425-21.78-50.25-21.78-38.027 0-68.841 30.805-68.841 68.803a68.67 68.67 0 001.784 15.592c-5.314-.218-86.237-4.755-141.289-71.423 0 0-32.902 44.917 19.607 91.105 0 0-15.962-.636-29.733-8.864 0 0-5.058 54.416 54.407 68.329 0 0-11.701 4.432-30.368 1.272 0 0 10.439 43.968 63.271 48.077 0 0-41.777 37.74-101.081 28.885l.019.005z" fill="#fff"/></svg><svg viewBox="0 0 14.155 14.155" id="update-arrow" xmlns="http://www.w3.org/2000/svg"><path d="M12.083 1.887A7.054 7.054 0 009.356.19v2.135c.48.239.935.55 1.334.95a5.118 5.118 0 010 7.229 5.123 5.123 0 01-7.229 0 5.121 5.121 0 010-7.229c.005-.006.021-.016.028-.025h.002l1.181 1.179L4.665.685.923.68l1.176 1.176a.118.118 0 01-.027.031 7.078 7.078 0 1010.011 0z" fill="#030104"/></svg><svg viewBox="0 0 480 480" id="volume" xmlns="http://www.w3.org/2000/svg"><path d="M278.944 17.577c-5.568-2.656-12.128-1.952-16.928 1.92L106.368 144.009H32c-17.632 0-32 14.368-32 32v128c0 17.664 14.368 32 32 32h74.368l155.616 124.512A16.158 16.158 0 00272 464.009c2.368 0 4.736-.544 6.944-1.6a15.968 15.968 0 009.056-14.4v-416a16.05 16.05 0 00-9.056-14.432zm90.048 109.28c-6.304-6.208-16.416-6.112-22.624.128-6.208 6.304-6.144 16.416.128 22.656C370.688 173.513 384 205.609 384 240.009s-13.312 66.496-37.504 90.368c-6.272 6.176-6.336 16.32-.128 22.624a15.943 15.943 0 0011.36 4.736c4.064 0 8.128-1.536 11.264-4.64C399.328 323.241 416 283.049 416 240.009s-16.672-83.232-47.008-113.152z"/><path d="M414.144 81.769c-6.304-6.24-16.416-6.176-22.656.096-6.208 6.272-6.144 16.416.096 22.624C427.968 140.553 448 188.681 448 240.009s-20.032 99.424-56.416 135.488c-6.24 6.24-6.304 16.384-.096 22.656 3.168 3.136 7.264 4.704 11.36 4.704 4.064 0 8.16-1.536 11.296-4.64C456.64 356.137 480 299.945 480 240.009s-23.36-116.128-65.856-158.24z"/></svg></svg>